<?xml version="1.0" encoding="UTF-8" standalone="no"?> <svg xmlns="http://www.w3.org/2000/svg" width="44.033" height="38.535" viewBox="0 0 44.033 38.535">
  <g id="Group_1455" data-name="Group 1455" transform="translate(-875.023 -891.138)">
    <g id="Group_1440" data-name="Group 1440">
      <g id="Group_1439" data-name="Group 1439">
        <g id="Group_1438" data-name="Group 1438">
          <path id="Path_255" data-name="Path 255" d="M892.4,905.246c-.773-1.861-2.611-3.322-5.459-4.34a12.916,12.916,0,0,0-4.356-.767,13.086,13.086,0,0,0-7.35,2.253.536.536,0,0,0,.062.9,31.917,31.917,0,0,1,5.537,3.967c.154.146,3.852,3.586,7.658,3.586h0a5.448,5.448,0,0,0,3.793-1.479.555.555,0,0,0,.123-.167A5.163,5.163,0,0,0,892.4,905.246Z"/>
        </g>
      </g>
    </g>
    <g id="Group_1444" data-name="Group 1444">
      <g id="Group_1443" data-name="Group 1443">
        <g id="Group_1442" data-name="Group 1442">
          <g id="Group_1441" data-name="Group 1441">
            <path id="Path_256" data-name="Path 256" d="M895.5,912.9a.543.543,0,0,1-.458-.256c-2.452-4.014-12.014-7.978-12.11-8.016a.535.535,0,0,1,.406-.99c.406.168,9.984,4.137,12.618,8.446a.537.537,0,0,1-.178.736A.528.528,0,0,1,895.5,912.9Z"/>
          </g>
        </g>
      </g>
    </g>
    <g id="Group_1447" data-name="Group 1447">
      <g id="Group_1446" data-name="Group 1446">
        <g id="Group_1445" data-name="Group 1445">
          <path id="Path_257" data-name="Path 257" d="M918.8,893.185a16.709,16.709,0,0,0-8.093-2.047,16.425,16.425,0,0,0-7.025,1.581c-3.506,1.645-5.664,3.722-6.418,6.173a6.539,6.539,0,0,0,.459,4.965.535.535,0,0,0,.137.152,6.873,6.873,0,0,0,4.23,1.443c5.13,0,9.857-5.322,10.057-5.548a41.316,41.316,0,0,1,6.676-5.821.534.534,0,0,0-.023-.9Z"/>
        </g>
      </g>
    </g>
    <g id="Group_1451" data-name="Group 1451">
      <g id="Group_1450" data-name="Group 1450">
        <g id="Group_1449" data-name="Group 1449">
          <g id="Group_1448" data-name="Group 1448">
            <path id="Path_258" data-name="Path 258" d="M895.5,923.965a.535.535,0,0,1-.534-.534V910.378c0-9.983,13.088-14.047,13.645-14.217a.535.535,0,1,1,.31,1.025c-.129.038-12.885,4.005-12.885,13.191V923.43A.537.537,0,0,1,895.5,923.965Z"/>
          </g>
        </g>
      </g>
    </g>
    <g id="Group_1454" data-name="Group 1454">
      <g id="Group_1453" data-name="Group 1453">
        <g id="Group_1452" data-name="Group 1452">
          <path id="Path_259" data-name="Path 259" d="M916.746,929.673c-1.372-2.04-4.471-4.7-11.132-3.669,0,0-2.744-7.923-12.131-6.471a7.75,7.75,0,0,0-6.9,7.076s-5.158.378-7.1,3.064Z"/>
        </g>
      </g>
    </g>
  </g>
</svg>
